<?xml version="1.0" encoding="iso-8859-1"?>
<!-- Generator: Adobe Illustrator 18.0.0, SVG Export Plug-In . SVG Version: 6.00 Build 0)  -->
<!DOCTYPE svg PUBLIC "-//W3C//DTD SVG 1.1//EN" "http://www.w3.org/Graphics/SVG/1.1/DTD/svg11.dtd">
<svg version="1.1" id="Capa_1" xmlns="http://www.w3.org/2000/svg" xmlns:xlink="http://www.w3.org/1999/xlink" x="0px" y="0px"
	 viewBox="0 0 54 54" style="enable-background:new 0 0 54 54;" xml:space="preserve">
<g>
	<g>
		<rect x="1" y="1" style="fill:#337742;" width="52" height="52"/>
		<path style="fill:#337742;" d="M54,54H0V0h54V54z M2,52h50V2H2V52z"/>
	</g>
	<path style="fill:#FFFFFF;" d="M6,49c-0.256,0-0.512-0.098-0.707-0.293c-0.391-0.391-0.391-1.023,0-1.414l17-17
		c0.391-0.391,1.023-0.391,1.414,0s0.391,1.023,0,1.414l-17,17C6.512,48.902,6.256,49,6,49z"/>
	<polygon style="fill:#FFFFFF;" points="20.143,49 5,49 5,33.857 7,33.857 7,47 20.143,47 	"/>
	<path style="fill:#FFFFFF;" d="M31,24c-0.256,0-0.512-0.098-0.707-0.293c-0.391-0.391-0.391-1.023,0-1.414l17-17
		c0.391-0.391,1.023-0.391,1.414,0s0.391,1.023,0,1.414l-17,17C31.512,23.902,31.256,24,31,24z"/>
	<polygon style="fill:#FFFFFF;" points="49,20.143 47,20.143 47,7 33.857,7 33.857,5 49,5 	"/>
</g>
<g>
</g>
<g>
</g>
<g>
</g>
<g>
</g>
<g>
</g>
<g>
</g>
<g>
</g>
<g>
</g>
<g>
</g>
<g>
</g>
<g>
</g>
<g>
</g>
<g>
</g>
<g>
</g>
<g>
</g>
</svg>
